<svg width="300" height="300" viewBox="0 0 300 300" fill="none" xmlns="http://www.w3.org/2000/svg">
<circle cx="150" cy="150" r="147.5" stroke="black" stroke-width="5"/>
<path d="M150 80L210.622 185H89.3782L150 80Z" fill="#FFF50B"/>
<rect x="89" y="181" width="122" height="4" fill="#F8B509"/>
<circle cx="149.5" cy="167.5" r="7.5" fill="#F71717"/>
<circle cx="152" cy="164" r="1" fill="white"/>
<circle cx="146" cy="168" r="1" fill="white"/>
<circle cx="152" cy="171" r="1" fill="white"/>
<circle cx="127.5" cy="142.5" r="7.5" fill="#F71717"/>
<circle cx="130" cy="139" r="1" fill="white"/>
<circle cx="124" cy="143" r="1" fill="white"/>
<circle cx="130" cy="146" r="1" fill="white"/>
<circle cx="172.5" cy="142.5" r="7.5" fill="#F71717"/>
<circle cx="175" cy="139" r="1" fill="white"/>
<circle cx="169" cy="143" r="1" fill="white"/>
<circle cx="175" cy="146" r="1" fill="white"/>
<circle cx="188.5" cy="167.5" r="7.5" fill="#F71717"/>
<circle cx="191" cy="164" r="1" fill="white"/>
<circle cx="185" cy="168" r="1" fill="white"/>
<circle cx="191" cy="171" r="1" fill="white"/>
<circle cx="110.5" cy="167.5" r="7.5" fill="#F71717"/>
<circle cx="113" cy="164" r="1" fill="white"/>
<circle cx="107" cy="168" r="1" fill="white"/>
<circle cx="113" cy="171" r="1" fill="white"/>
<circle cx="150.5" cy="142.5" r="7.5" fill="#F55656"/>
<path d="M145.25 141.864C144.543 141.769 144.16 140.986 144.519 140.37L145.979 137.863C146.381 137.173 147.391 137.209 147.742 137.927L149.157 140.821C149.508 141.539 148.917 142.358 148.125 142.251L145.25 141.864Z" fill="#DB2C2C" fill-opacity="0.5"/>
<path d="M152.66 146.231C152.947 146.883 152.478 147.618 151.765 147.633L148.865 147.692C148.066 147.708 147.572 146.827 148.002 146.154L149.735 143.439C150.165 142.765 151.172 142.843 151.494 143.575L152.66 146.231Z" fill="#DB2C2C" fill-opacity="0.5"/>
<path d="M153.273 142.455C152.572 142.584 151.964 141.958 152.114 141.261L152.723 138.425C152.891 137.644 153.862 137.365 154.418 137.939L156.662 140.25C157.219 140.823 156.911 141.785 156.126 141.93L153.273 142.455Z" fill="#DB2C2C" fill-opacity="0.5"/>
<circle cx="128.5" cy="167.5" r="7.5" fill="#F55656"/>
<path d="M123.25 166.864C122.543 166.769 122.16 165.986 122.519 165.37L123.979 162.863C124.381 162.173 125.391 162.209 125.742 162.927L127.157 165.821C127.508 166.539 126.917 167.358 126.125 167.251L123.25 166.864Z" fill="#DB2C2C" fill-opacity="0.5"/>
<path d="M130.66 171.231C130.947 171.883 130.478 172.618 129.765 172.633L126.865 172.692C126.066 172.708 125.572 171.827 126.002 171.154L127.735 168.439C128.165 167.765 129.172 167.843 129.494 168.575L130.66 171.231Z" fill="#DB2C2C" fill-opacity="0.5"/>
<path d="M131.273 167.455C130.572 167.584 129.964 166.958 130.114 166.261L130.723 163.425C130.891 162.644 131.862 162.365 132.418 162.939L134.662 165.25C135.219 165.823 134.911 166.785 134.126 166.93L131.273 167.455Z" fill="#DB2C2C" fill-opacity="0.5"/>
<circle cx="169.5" cy="167.5" r="7.5" fill="#F55656"/>
<path d="M164.25 166.864C163.543 166.769 163.16 165.986 163.519 165.37L164.979 162.863C165.381 162.173 166.391 162.209 166.742 162.927L168.157 165.821C168.508 166.539 167.917 167.358 167.125 167.251L164.25 166.864Z" fill="#DB2C2C" fill-opacity="0.5"/>
<path d="M171.66 171.231C171.947 171.883 171.478 172.618 170.765 172.633L167.865 172.692C167.066 172.708 166.572 171.827 167.002 171.154L168.735 168.439C169.165 167.765 170.172 167.843 170.494 168.575L171.66 171.231Z" fill="#DB2C2C" fill-opacity="0.5"/>
<path d="M172.273 167.455C171.572 167.584 170.964 166.958 171.114 166.261L171.723 163.425C171.891 162.644 172.862 162.365 173.418 162.939L175.662 165.25C176.219 165.823 175.911 166.785 175.126 166.93L172.273 167.455Z" fill="#DB2C2C" fill-opacity="0.5"/>
<ellipse cx="149.5" cy="97" rx="7.5" ry="5" fill="#B7720A"/>
<rect x="148" y="101" width="3" height="8" fill="#B7720A"/>
<circle cx="153.5" cy="95.5" r="0.5" fill="#C4C4C4"/>
<ellipse cx="162.5" cy="119" rx="7.5" ry="5" fill="#B7720A"/>
<rect x="161" y="123" width="3" height="8" fill="#B7720A"/>
<circle cx="166.5" cy="117.5" r="0.5" fill="#C4C4C4"/>
<ellipse cx="137.5" cy="119" rx="7.5" ry="5" fill="#B7720A"/>
<rect x="136" y="123" width="3" height="8" fill="#B7720A"/>
<circle cx="141.5" cy="117.5" r="0.5" fill="#C4C4C4"/>
<circle cx="150" cy="150" r="145" fill="#C4C4C4" fill-opacity="0.5"/>
</svg>
