<?xml version="1.0" standalone="no"?>
<!DOCTYPE svg PUBLIC "-//W3C//DTD SVG 20010904//EN"
 "http://www.w3.org/TR/2001/REC-SVG-20010904/DTD/svg10.dtd">
<svg version="1.0" xmlns="http://www.w3.org/2000/svg"
 width="700.000000pt" height="700.000000pt" viewBox="0 0 700.000000 700.000000"
 preserveAspectRatio="xMidYMid meet">
<metadata>
Created by potrace 1.14, written by Peter Selinger 2001-2017
</metadata>
<g transform="translate(0.000000,700.000000) scale(0.100000,-0.100000)"
fill="#000000" stroke="none">
<path d="M3170 6989 c-52 -5 -161 -20 -242 -34 -893 -149 -1688 -633 -2233
-1360 -388 -518 -627 -1141 -685 -1785 -13 -148 -13 -472 0 -620 88 -980 589
-1885 1375 -2480 501 -380 1048 -601 1715 -692 148 -20 681 -17 840 5 429 61
760 163 1135 352 215 108 341 186 520 320 566 424 985 998 1215 1661 81 234
133 461 172 744 17 128 17 672 0 800 -64 471 -177 833 -381 1225 -280 539
-724 1020 -1243 1345 -124 78 -430 234 -548 280 -334 129 -670 210 -1000 240
-135 12 -504 11 -640 -1z m739 -134 c1030 -132 1913 -696 2462 -1571 255 -406
418 -869 486 -1380 24 -180 24 -628 0 -808 -74 -551 -250 -1029 -542 -1466
-445 -666 -1108 -1154 -1866 -1374 -336 -97 -576 -130 -949 -130 -294 0 -410
11 -661 60 -648 126 -1262 456 -1734 931 -543 546 -872 1234 -966 2018 -18
146 -18 587 -1 730 74 608 284 1150 630 1625 449 616 1108 1071 1838 1269 172
47 371 85 529 100 61 6 126 13 145 15 80 9 512 -4 629 -19z"/>
<path d="M3435 4851 c-75 -19 -125 -67 -125 -120 0 -30 46 -77 95 -98 l45 -18
0 -83 0 -83 38 3 37 3 3 81 3 82 43 16 c148 57 107 199 -64 219 -25 3 -58 2
-75 -2z"/>
<path d="M3112 4323 c-40 -19 -82 -68 -82 -94 0 -51 71 -119 125 -119 12 0 15
-15 15 -85 l0 -85 40 0 40 0 0 83 0 84 38 11 c82 25 123 111 77 163 -50 55
-182 77 -253 42z"/>
<path d="M3695 4321 c-54 -25 -79 -55 -79 -96 0 -44 43 -91 96 -107 l38 -11 0
-84 0 -83 40 0 40 0 0 85 c0 70 3 85 15 85 54 0 125 68 125 119 0 27 -48 81
-87 97 -46 20 -140 17 -188 -5z"/>
<path d="M2885 3827 c-53 -30 -85 -87 -85 -152 0 -65 32 -122 85 -152 84 -48
196 -19 242 62 48 84 19 196 -62 242 -27 15 -57 23 -90 23 -33 0 -63 -8 -90
-23z m163 -70 c2 -10 -3 -17 -12 -17 -18 0 -29 16 -21 31 9 14 29 6 33 -14z
m-138 -91 c0 -20 -19 -31 -32 -18 -6 6 -7 15 -4 21 10 16 36 13 36 -3z m140
-70 c0 -20 -19 -31 -32 -18 -6 6 -7 15 -4 21 10 16 36 13 36 -3z"/>
<path d="M3432 3833 c-44 -21 -79 -65 -92 -114 -45 -165 158 -289 287 -176 79
69 85 176 15 251 -52 55 -143 72 -210 39z"/>
<path d="M3935 3827 c-53 -30 -85 -87 -85 -152 0 -65 32 -122 85 -152 84 -48
196 -19 242 62 48 84 19 196 -62 242 -27 15 -57 23 -90 23 -33 0 -63 -8 -90
-23z m163 -70 c2 -10 -3 -17 -12 -17 -18 0 -29 16 -21 31 9 14 29 6 33 -14z
m-138 -91 c0 -20 -19 -31 -32 -18 -6 6 -7 15 -4 21 10 16 36 13 36 -3z m140
-70 c0 -20 -19 -31 -32 -18 -6 6 -7 15 -4 21 10 16 36 13 36 -3z"/>
<path d="M2505 3251 c-48 -22 -69 -44 -90 -94 -21 -50 -19 -93 6 -145 53 -109
192 -131 280 -43 88 88 66 227 -43 280 -54 26 -100 26 -153 2z m150 -81 c0
-22 -29 -18 -33 3 -3 14 1 18 15 15 10 -2 18 -10 18 -18z m-140 -90 c0 -8 -8
-16 -17 -18 -13 -2 -18 3 -18 18 0 15 5 20 18 18 9 -2 17 -10 17 -18z m140
-70 c0 -8 -8 -16 -17 -18 -13 -2 -18 3 -18 18 0 15 5 20 18 18 9 -2 17 -10 17
-18z"/>
<path d="M2925 3251 c-48 -22 -69 -44 -90 -94 -21 -50 -19 -93 6 -144 53 -109
193 -132 280 -44 88 87 65 227 -44 280 -53 26 -99 26 -152 2z"/>
<path d="M3415 3251 c-48 -22 -69 -44 -90 -94 -21 -50 -19 -93 6 -145 53 -109
192 -131 280 -43 88 88 66 227 -43 280 -54 26 -100 26 -153 2z m150 -81 c0
-22 -29 -18 -33 3 -3 14 1 18 15 15 10 -2 18 -10 18 -18z m-140 -90 c0 -8 -8
-16 -17 -18 -13 -2 -18 3 -18 18 0 15 5 20 18 18 9 -2 17 -10 17 -18z m140
-70 c0 -8 -8 -16 -17 -18 -13 -2 -18 3 -18 18 0 15 5 20 18 18 9 -2 17 -10 17
-18z"/>
<path d="M3885 3256 c-37 -16 -92 -77 -101 -112 -12 -48 2 -121 30 -159 36
-47 81 -69 141 -69 117 0 193 98 171 219 -8 43 -59 103 -103 121 -41 17 -99
17 -138 0z"/>
<path d="M4325 3251 c-48 -22 -69 -44 -90 -94 -21 -50 -19 -93 6 -145 53 -109
192 -131 280 -43 88 88 66 227 -43 280 -54 26 -100 26 -153 2z m150 -81 c0
-22 -29 -18 -33 3 -3 14 1 18 15 15 10 -2 18 -10 18 -18z m-140 -90 c0 -8 -8
-16 -17 -18 -13 -2 -18 3 -18 18 0 15 5 20 18 18 9 -2 17 -10 17 -18z m140
-70 c0 -8 -8 -16 -17 -18 -13 -2 -18 3 -18 18 0 15 5 20 18 18 9 -2 17 -10 17
-18z"/>
<path d="M2080 2730 l0 -50 1420 0 1420 0 0 50 0 50 -1420 0 -1420 0 0 -50z"/>
</g>
</svg>
